<svg xmlns:dc="http://purl.org/dc/elements/1.1/" xmlns:cc="http://creativecommons.org/ns#" xmlns:rdf="http://www.w3.org/1999/02/22-rdf-syntax-ns#" xmlns:svg="http://www.w3.org/2000/svg" xmlns="http://www.w3.org/2000/svg" xmlns:sodipodi="http://sodipodi.sourceforge.net/DTD/sodipodi-0.dtd" xmlns:inkscape="http://www.inkscape.org/namespaces/inkscape" id="svg10" width="520" height="444" viewBox="0 0 520 444" sodipodi:docname="paresseux.svg" inkscape:version="1.0.2 (e86c870879, 2021-01-15)"><defs id="defs14"><inkscape:path-effect effect="bspline" id="path-effect204" is_visible="true" lpeversion="1" weight="33" steps="2" helper_size="0" apply_no_weight="true" apply_with_weight="true" only_selected="false"/><inkscape:path-effect effect="bspline" id="path-effect200" is_visible="true" lpeversion="1" weight="33" steps="2" helper_size="0" apply_no_weight="true" apply_with_weight="true" only_selected="false"/><inkscape:path-effect effect="bspline" id="path-effect196" is_visible="true" lpeversion="1" weight="33" steps="2" helper_size="0" apply_no_weight="true" apply_with_weight="true" only_selected="false"/><inkscape:path-effect effect="bspline" id="path-effect192" is_visible="true" lpeversion="1" weight="33" steps="2" helper_size="0" apply_no_weight="true" apply_with_weight="true" only_selected="false"/><inkscape:path-effect effect="bspline" id="path-effect188" is_visible="true" lpeversion="1" weight="33" steps="2" helper_size="0" apply_no_weight="true" apply_with_weight="true" only_selected="false"/><inkscape:path-effect effect="bspline" id="path-effect184" is_visible="true" lpeversion="1" weight="33" steps="2" helper_size="0" apply_no_weight="true" apply_with_weight="true" only_selected="false"/><inkscape:path-effect effect="bspline" id="path-effect180" is_visible="true" lpeversion="1" weight="33" steps="2" helper_size="0" apply_no_weight="true" apply_with_weight="true" only_selected="false"/><inkscape:path-effect effect="bspline" id="path-effect176" is_visible="true" lpeversion="1" weight="33" steps="2" helper_size="0" apply_no_weight="true" apply_with_weight="true" only_selected="false"/><inkscape:path-effect effect="bspline" id="path-effect170" is_visible="true" lpeversion="1" weight="33" steps="2" helper_size="0" apply_no_weight="true" apply_with_weight="true" only_selected="false"/><inkscape:path-effect effect="bspline" id="path-effect168" is_visible="true" lpeversion="1" weight="33" steps="2" helper_size="0" apply_no_weight="true" apply_with_weight="true" only_selected="false"/><inkscape:path-effect effect="bspline" id="path-effect140" is_visible="true" lpeversion="1" weight="33" steps="2" helper_size="0" apply_no_weight="true" apply_with_weight="true" only_selected="false"/><inkscape:path-effect effect="bspline" id="path-effect124" is_visible="true" lpeversion="1" weight="33" steps="2" helper_size="0" apply_no_weight="true" apply_with_weight="true" only_selected="false"/><inkscape:path-effect effect="bspline" id="path-effect120" is_visible="true" lpeversion="1" weight="33" steps="2" helper_size="0" apply_no_weight="true" apply_with_weight="true" only_selected="false"/><inkscape:path-effect effect="bspline" id="path-effect114" is_visible="true" lpeversion="1" weight="33" steps="2" helper_size="0" apply_no_weight="true" apply_with_weight="true" only_selected="false"/><inkscape:path-effect effect="bspline" id="path-effect110" is_visible="true" lpeversion="1" weight="33" steps="2" helper_size="0" apply_no_weight="true" apply_with_weight="true" only_selected="false"/><inkscape:path-effect effect="bspline" id="path-effect106" is_visible="true" lpeversion="1" weight="33" steps="2" helper_size="0" apply_no_weight="true" apply_with_weight="true" only_selected="false"/><inkscape:path-effect effect="bspline" id="path-effect102" is_visible="true" lpeversion="1" weight="33" steps="2" helper_size="0" apply_no_weight="true" apply_with_weight="true" only_selected="false"/><inkscape:path-effect effect="bspline" id="path-effect98" is_visible="true" lpeversion="1" weight="33" steps="2" helper_size="0" apply_no_weight="true" apply_with_weight="true" only_selected="false"/><inkscape:path-effect effect="bspline" id="path-effect76" is_visible="true" lpeversion="1" weight="33" steps="2" helper_size="0" apply_no_weight="true" apply_with_weight="true" only_selected="false"/><inkscape:path-effect effect="bspline" id="path-effect72" is_visible="true" lpeversion="1" weight="33" steps="2" helper_size="0" apply_no_weight="true" apply_with_weight="true" only_selected="false"/><inkscape:path-effect effect="bspline" id="path-effect68" is_visible="true" lpeversion="1" weight="33" steps="2" helper_size="0" apply_no_weight="true" apply_with_weight="true" only_selected="false"/><inkscape:path-effect effect="bspline" id="path-effect64" is_visible="true" lpeversion="1" weight="33" steps="2" helper_size="0" apply_no_weight="true" apply_with_weight="true" only_selected="false"/><inkscape:path-effect effect="bspline" id="path-effect60" is_visible="true" lpeversion="1" weight="33" steps="2" helper_size="0" apply_no_weight="true" apply_with_weight="true" only_selected="false"/><inkscape:path-effect effect="bspline" id="path-effect56" is_visible="true" lpeversion="1" weight="33" steps="2" helper_size="0" apply_no_weight="true" apply_with_weight="true" only_selected="false"/><inkscape:path-effect effect="bspline" id="path-effect52" is_visible="true" lpeversion="1" weight="33" steps="2" helper_size="0" apply_no_weight="true" apply_with_weight="true" only_selected="false"/><inkscape:path-effect effect="bspline" id="path-effect44" is_visible="true" lpeversion="1" weight="33" steps="2" helper_size="0" apply_no_weight="true" apply_with_weight="true" only_selected="false"/><inkscape:path-effect effect="bspline" id="path-effect40" is_visible="true" lpeversion="1" weight="33" steps="2" helper_size="0" apply_no_weight="true" apply_with_weight="true" only_selected="false"/><inkscape:path-effect effect="bspline" id="path-effect36" is_visible="true" lpeversion="1" weight="33" steps="2" helper_size="0" apply_no_weight="true" apply_with_weight="true" only_selected="false"/></defs><sodipodi:namedview pagecolor="#ffffff" bordercolor="#666666" borderopacity="1" objecttolerance="10" gridtolerance="10" guidetolerance="10" inkscape:pageopacity="0" inkscape:pageshadow="2" inkscape:window-width="1920" inkscape:window-height="1056" id="namedview12" showgrid="true" inkscape:zoom="1.6261472" inkscape:cx="205.11313" inkscape:cy="214.20104" inkscape:window-x="1920" inkscape:window-y="24" inkscape:window-maximized="1" inkscape:current-layer="g354" inkscape:pagecheckerboard="0" inkscape:document-rotation="0"/><g inkscape:groupmode="layer" inkscape:label="Image" id="g18" transform="translate(-0.94681173,-35.955356)"><g id="g354" style="display:inline;stroke:#000;stroke-opacity:1"><path style="fill:none;stroke:#000;stroke-width:1px;stroke-linecap:butt;stroke-linejoin:miter;stroke-opacity:1" d="m298.04393 384.49942c-14.40909 10.80682-28.81834 21.61375-53.0864 24.26818-24.26807 2.65444-58.39455-2.84372-77.44898-7.48845-19.05443-4.64472-23.03585-8.43655-27.3965-11.4703-4.36066-3.03375-9.10045-5.30885-15.35729-10.61738-6.25685-5.30853-14.0301-13.65055-20.76101-24.45753-6.730918-10.80698-12.418665-24.07839-16.115879-33.65303s-5.403536-15.45197-6.351682-26.35395c-.948146-10.90199-1.137738-26.82768-.474189-42.37471.663548-15.54704 2.180281-30.71437 4.455433-47.49378 2.275153-16.77942 5.308618-35.1698 7.488947-46.45086 2.180328-11.28106 3.507471-15.45208 5.21395-18.58073 1.706479-3.12866 3.79198-5.21416 5.97281-6.35177 2.18082-1.13762 4.45592-1.32721 6.73117-1.32712 2.27525 8e-5 4.55035.18967 6.44634.85364 1.89599.66397 3.41272 1.80152 4.36025 3.41326.94753 1.61173 1.32671 3.69723 1.70586 6.44638.37915 2.74915.75833 6.1618.37903 14.50403s-1.51685 21.61364-1.42192 32.98956c.0949 11.37593 1.42207 20.85551 3.12846 32.23137s3.7919 24.64727 6.16205 34.22193c2.37015 9.57466 5.02443 15.45201 7.96331 20.7607s6.16193 10.04847 8.91114 13.84038c2.74921 3.79192 5.0243 6.63578 7.29857 9.47862" id="path50" inkscape:path-effect="#path-effect52" inkscape:original-d="m 298.04393,384.49942 c -14.40825,10.80794 -28.8175,21.61487 -43.22775,32.42081 -34.12685,-5.49737 -68.25333,-10.99553 -102.3815,-16.4948 -3.98058,-3.79098 -7.962,-7.58281 -11.94451,-11.37572 -4.73898,-2.27419 -9.47877,-4.54929 -14.21965,-6.82543 -7.77257,-8.34137 -15.54582,-16.6834 -23.32023,-25.02659 -5.686976,-13.27094 -11.374724,-26.54235 -17.063585,-39.81503 -1.705392,-5.87658 -3.411717,-11.75391 -5.119075,-17.63237 -0.188599,-15.92533 -0.378191,-31.85102 -0.568786,-47.77804 1.517793,-15.16693 3.034526,-30.33426 4.550289,-45.50289 3.034587,-18.39012 6.068052,-36.7805 9.100578,-55.17225 1.328194,-4.17018 2.655335,-8.3412 3.981503,-12.51329 2.086591,-2.0846 4.172096,-4.1701 6.256646,-6.25665 2.27619,-0.1886 4.55129,-0.37819 6.82543,-0.56879 2.27619,0.1906 4.55129,0.38019 6.82544,0.56879 1.51779,1.13859 3.03452,2.27614 4.55029,3.41271 0.3802,2.0866 0.75938,4.1721 1.13757,6.25665 0.3802,3.41379 0.75938,6.82644 1.13757,10.23815 -1.13659,13.27294 -2.27414,26.54435 -3.41271,39.81503 1.32819,9.48096 2.65533,18.96054 3.9815,28.43931 2.08659,13.27294 4.1721,26.54435 6.25665,39.81503 2.65538,5.87857 5.30967,11.75591 7.963,17.63237 3.22419,4.74098 6.44724,9.48076 9.66937,14.21965 2.27619,2.84499 4.55128,5.68886 6.82543,8.53179"/><path style="fill:none;stroke:#000;stroke-width:1px;stroke-linecap:butt;stroke-linejoin:miter;stroke-opacity:1" d="m148.45318 190.54335c-.37926 5.30959-.75845 10.61826-.28434 18.77107.4741 8.1528 1.80124 19.14911 3.60254 28.15501 1.80131 9.0059 4.07641 16.02079 6.63603 22.94109 2.55962 6.92031 5.4035 13.7456 9.66971 17.25253 4.26622 3.50693 9.95397 3.69652 16.40028 3.88611 6.44632.1896 13.6508.37919 20.85524-.94812s14.40892-4.17119 17.72687-6.16125c3.31795-1.99006 2.74918-3.12761.75828-9.28957-1.9909-6.16197-5.40355-17.34787-7.58402-27.11216-2.18048-9.76429-3.12844-18.10632-3.60249-26.25906-.47405-8.15273-.47405-16.11557-.0949-23.79432.37915-7.67874 1.13752-15.07281 1.99069-21.89834.85317-6.82552 1.80113-13.08204 3.22308-17.917s3.31787-8.24761 6.25718-10.14378c2.93931-1.89617 6.92074-2.27536 9.95437-2.37006 3.03364-.0947 5.11915.0949 7.58391 1.42249 2.46476 1.32761 5.30864 3.79229 7.01467 5.878s2.2748 3.79203 2.74869 5.78277c.47389 1.99075.85307 4.26585.66327 6.3511-.1898 2.08526-.94817 3.98118-1.80111 5.21321-.85294 1.23202-1.8009 1.8008-2.46455.66384-.66366-1.13696-1.04285-3.98083-1.51661-5.30865-.47377-1.32782-1.04255-1.13823-1.42208-8e-5-.37954 1.13814-.56913 3.22364-1.04288 4.45547-.47376 1.23182-1.23212 1.611-1.99057.2845-.75844-1.32651-1.51681-4.35998-2.18024-5.78263-.66344-1.42265-1.23221-1.23306-1.61174.28429-.37952 1.51736-.56911 4.36124-1.04272 5.87745s-1.23198 1.7058-1.99039 1.13768c-.7584-.56812-1.51676-1.89526-1.99104-3.50688-.47427-1.61163-.66386-3.50755-1.04282-5.02427-.37895-1.51672-.94772-2.65427-1.70591-3.69715-.75819-1.04288-1.70615-1.99084-2.55928-2.74931-.85313-.75847-1.61149-1.32724-2.37099-1.89687" id="path54" inkscape:path-effect="#path-effect56" inkscape:original-d="m 148.45318,190.54335 c -0.37819,5.30967 -0.75738,10.61834 -1.13757,15.92601 1.32819,10.99776 2.65533,21.99407 3.9815,32.9896 2.27619,7.01617 4.55129,14.03106 6.82543,21.04509 2.84499,6.82657 5.68886,13.65186 8.5318,20.4763 5.68897,0.1906 11.37672,0.38019 17.06358,0.56878 7.20577,0.1906 14.41025,0.38019 21.61387,0.56879 7.20577,-2.84299 14.41025,-5.68686 21.61387,-8.53179 -0.56779,-1.1366 -1.13657,-2.27415 -1.70635,-3.41272 -3.41179,-11.18535 -6.82444,-22.37125 -10.23815,-33.55838 -0.947,-8.34136 -1.89496,-16.68339 -2.84393,-25.02659 0.001,-7.96217 0.001,-15.92501 0,-23.88902 0.75939,-7.39337 1.51776,-14.78744 2.27514,-22.18266 0.949,-6.25577 1.89695,-12.51229 2.84393,-18.76994 1.89699,-3.41178 3.79291,-6.82443 5.68786,-10.23815 3.98258,-0.3782 7.96401,-0.75738 11.94451,-1.13757 2.08659,0.1906 4.1721,0.38019 6.25665,0.56878 2.84499,2.46579 5.68886,4.93048 8.53179,7.39422 0.5698,1.7074 1.13857,3.41372 1.70636,5.11908 0.3802,2.27619 0.75938,4.55129 1.13757,6.82543 -0.7574,1.89699 -1.51576,3.79291 -2.27514,5.68786 -0.947,0.5698 -1.89496,1.13858 -2.84393,1.70636 -0.3782,-2.84299 -0.75739,-5.68686 -1.13758,-8.53179 -0.56779,0.1906 -1.13657,0.38019 -1.70636,0.56879 -0.18859,2.08659 -0.37819,4.17209 -0.56878,6.25664 -0.7574,0.3802 -1.51576,0.75939 -2.27515,1.13758 -0.75739,-3.03259 -1.51576,-6.06606 -2.27514,-9.10058 -0.5678,0.1906 -1.13657,0.38019 -1.70636,0.56878 -0.1886,2.84499 -0.37819,5.68887 -0.56878,8.5318 -0.7574,0.1906 -1.51577,0.38019 -2.27515,0.56878 -0.7574,-1.32619 -1.51576,-2.65333 -2.27514,-3.9815 -0.1886,-1.89499 -0.37819,-3.79091 -0.56879,-5.68786 -0.5678,-1.1366 -1.13657,-2.27415 -1.70636,-3.41272 -0.94699,-0.94699 -1.89495,-1.89495 -2.84393,-2.84393 -0.7574,-0.5678 -1.51576,-1.13657 -2.27514,-1.70636"/><path style="fill:none;stroke:#000;stroke-width:1px;stroke-linecap:butt;stroke-linejoin:miter;stroke-opacity:1" d="m242.30289 161.53526c-.18967 2.46566-.37926 4.9304-.3792 7.77443 7e-5 2.84404.18967 6.06708.37927 9.19544.1896 3.12836.37919 6.16183.6636 9.76419.28442 3.60236.6636 7.77338 1.70652 12.60817 1.04293 4.8348 2.74926 10.33296 4.45569 15.16769 1.70644 4.83473 3.41276 9.00574 5.11915 13.08208s3.41271 8.05777 5.02441 11.18609c1.61171 3.12832 3.12844 5.40341 4.64487 5.87678 1.51643.47336 3.03316-.85378 6.16145-4.45606s7.86808-9.47961 13.36645-15.54679c5.49838-6.06717 11.75491-12.3237 16.77945-16.30532s8.81637-5.68794 10.80682-7.01463 2.18004-2.27465 2.65419-3.03348c.47415-.75884 1.23252-1.32761 2.74976-1.5171 1.51725-.18949 3.79235 1e-4 5.78316.28459 1.99081.28448 3.69713.66366 5.30813.0947 1.61099-.56893 3.12773-2.08567 4.73988-2.27487 1.61216-.18919 3.31848.94836 4.64558 1.99126s2.27506 1.99086 3.50744 2.46434c1.23239.47349 2.74912.47349 3.507.0948.75788-.3787.75788-1.13706 1.80128-1.04248 1.0434.0946 3.12891 1.04254 4.64548 2.18042 1.51658 1.13788 2.46453 2.46501 3.41256 3.69737.94804 1.23236 1.89599 2.3699 2.93893 3.12795 1.04294.75804 2.18049 1.13723 2.84342.56865.66293-.56857.85252-2.0853 1.42175-2.93899.56924-.85368 1.5172-1.04328 2.8445-.2843 1.3273.75897 3.03362 2.4653 4.2658 4.07698 1.23217 1.61167 1.99054 3.1284 3.12814 5.30877 1.13761 2.18038 2.65434 5.02426 3.98141 6.16112 1.32706 1.13687 2.46461.5681 3.69732.85306 1.23272.28496 2.55986 1.42251 3.12806 2.74967.5682 1.32715.37861 2.84388.28386 7.77352-.0947 4.92963-.0947 13.27166.66421 17.53712.75895 4.26547 2.27568 4.45506 3.03351 5.40349.75783.94842.75783 2.65475-1.13827 8.53208-1.89609 5.87733-5.68793 15.92568-9.76427 25.59508s-8.43695 18.95939-14.03004 28.15472c-5.59309 9.19533-12.41838 18.29573-16.21024 23.22513-3.79185 4.92941-4.55022 5.68778-5.68786 12.03977-1.13764 6.352-2.65438 18.29627-4.26597 29.38767-1.61159 11.09141-3.31792 21.32936-5.49832 30.52471-2.1804 9.19536-4.83469 17.3478-6.92025 23.79409-2.08556 6.4463-3.6023 11.18609-5.78266 16.02067-2.18037 4.83458-5.02424 9.76396-8.34211 14.12453-3.31787 4.36058-7.1097 8.15241-9.85841 10.14311-2.74871 1.99071-4.45503 2.1803-6.63535 2.27514-2.18031.0949-4.83459.0949-7.01486-.37882-2.18027-.47366-3.88659-1.42162-5.4982-2.46432-1.61161-1.04269-3.12835-2.18025-4.45579-3.88645-1.32744-1.7062-2.46499-3.9813-2.74976-6.3515s.284-4.83489 1.13719-7.01547c.85319-2.18059 1.99074-4.07651 3.41298-5.49872s3.12856-2.37017 3.98157-2.36957c.85301 6e-4.85301.94856.75817 2.37049-.0949 1.42193-.28444 3.31785.66357 3.03303.948-.28482 3.03351-2.74951 4.07632-2.18023 1.04281.56928 1.04281 4.17152 1.99079 4.9294.94797.75789 2.84389-1.32762 3.88671-.37911 1.04283.94851 1.23242 4.92995 2.08597 8.05834.85355 3.1284 2.37029 5.4035 3.60286 6.63541 1.23257 1.23191 2.18052 1.4215 3.12735 1.61087" id="path58" inkscape:path-effect="#path-effect60" inkscape:original-d="m 242.30289,161.53526 c -0.1886,2.46574 -0.37819,4.93048 -0.56879,7.39422 0.1906,3.22419 0.38019,6.44724 0.56879,9.66936 0.1906,3.03459 0.38019,6.06806 0.56879,9.10058 0.38019,4.17218 0.75938,8.3432 1.13757,12.5133 1.70739,5.49937 3.41372,10.99753 5.11907,16.49479 1.7074,4.17219 3.41372,8.3432 5.11908,12.5133 1.70739,3.98258 3.41372,7.96401 5.11907,11.94451 1.5178,2.27619 3.03453,4.55129 4.55029,6.82543 1.5178,-1.32619 3.03453,-2.65333 4.55029,-3.9815 4.74098,-5.87658 9.48077,-11.75391 14.21966,-17.63237 6.25777,-6.25577 12.51429,-12.5123 18.76994,-18.76994 3.79298,-1.7054 7.58481,-3.41172 11.37572,-5.11908 0.1906,-0.94699 0.38019,-1.89495 0.56879,-2.84393 0.75939,-0.5678 1.51776,-1.13657 2.27514,-1.70636 2.27619,0.1906 4.55129,0.38019 6.82543,0.56879 1.7074,0.3802 3.41372,0.75938 5.11908,1.13757 1.51779,-1.51579 3.03453,-3.03253 4.55029,-4.55029 1.70739,1.1386 3.41372,2.27615 5.11907,3.41272 0.949,0.94899 1.89696,1.89695 2.84393,2.84393 1.5178,0.001 3.03453,0.001 4.55029,0 10e-4,-0.7574 10e-4,-1.51576 0,-2.27515 2.08659,0.949 4.1721,1.89696 6.25665,2.84394 0.949,1.32819 1.89695,2.65533 2.84393,3.9815 0.949,1.13859 1.89695,2.27614 2.84393,3.41271 1.1386,0.3802 2.27615,0.75939 3.41272,1.13758 0.1906,-1.5158 0.38019,-3.03253 0.56878,-4.55029 0.949,-0.1886 1.89696,-0.37819 2.84394,-0.56879 1.70739,1.70739 3.41371,3.41372 5.11907,5.11908 0.7594,1.51779 1.51776,3.03452 2.27514,4.55029 1.5178,2.84498 3.03453,5.68886 4.55029,8.53179 1.1386,-0.5678 2.27615,-1.13657 3.41272,-1.70636 1.32819,1.13859 2.65534,2.27614 3.9815,3.41272 -0.1886,1.51779 -0.37819,3.03452 -0.56878,4.55029 10e-4,8.34336 10e-4,16.68539 0,25.02658 1.51779,0.1906 3.03452,0.3802 4.55029,0.56879 0.001,1.70739 0.001,3.41372 0,5.11908 -3.79099,10.04975 -7.58282,20.09811 -11.37573,30.14566 -4.35978,9.29136 -8.72038,18.58135 -13.08208,27.87052 -6.82457,9.10176 -13.64986,18.20216 -20.4763,27.30174 -0.75739,0.75939 -1.51576,1.51776 -2.27514,2.27514 -1.5158,11.94575 -3.03253,23.89002 -4.55029,35.83353 -1.70539,10.23935 -3.41172,20.4773 -5.11908,30.71445 -2.65338,8.15376 -5.30767,16.3062 -7.963,24.4578 -1.5158,4.74098 -3.03253,9.48077 -4.55029,14.21965 -2.84299,4.93058 -5.68686,9.85996 -8.53179,14.78844 -3.79099,3.79299 -7.58282,7.58482 -11.37573,11.37573 -1.70539,0.19059 -3.41171,0.38019 -5.11907,0.56878 -2.65339,10e-4 -5.30767,10e-4 -7.96301,0 -1.70539,-0.94699 -3.41171,-1.89495 -5.11907,-2.84393 -1.51579,-1.13659 -3.03253,-2.27414 -4.55029,-3.41272 -1.1366,-2.27419 -2.27415,-4.54929 -3.41272,-6.82543 0.5698,-2.46379 1.13857,-4.92848 1.70636,-7.39422 1.1386,-1.89499 2.27615,-3.79091 3.41272,-5.68786 1.70739,-0.947 3.41371,-1.89495 5.11907,-2.84393 0.001,0.94899 0.001,1.89695 0,2.84393 -0.1886,1.89699 -0.37819,3.79291 -0.56878,5.68786 2.08659,-2.46379 4.1721,-4.92848 6.25664,-7.39422 0.001,3.60339 0.001,7.20563 0,10.80694 1.897,-2.08459 3.79291,-4.1701 5.68787,-6.25665 0.19059,3.98258 0.38019,7.96401 0.56878,11.94451 1.51779,2.27619 3.03453,4.55129 4.55029,6.82543 0.949,0.1906 1.89695,0.38019 2.84393,0.56879"/><path style="fill:none;stroke:#000;stroke-width:1px;stroke-linecap:butt;stroke-linejoin:miter;stroke-opacity:1" d="m286.66821 454.46012c1.32706-1.70622 2.65422-3.41258 4.07616-6.54072 1.42193-3.12814 2.93867-7.67834 4.1711-14.12453s2.18038-14.78821 2.7492-21.23446c.56882-6.44625.75841-10.99644.75845-15.35714 5e-5-4.3607-.18955-8.53171-.37919-12.70385" id="path62" inkscape:path-effect="#path-effect64" inkscape:original-d="m 286.66821,454.46012 c 1.32817,-1.70536 2.65533,-3.41172 3.9815,-5.11908 1.51779,-4.54938 3.03453,-9.09958 4.55029,-13.65087 0.949,-8.34136 1.89695,-16.68339 2.84393,-25.02659 0.1906,-4.54938 0.38019,-9.09957 0.56879,-13.65086 -0.1886,-4.17019 -0.37819,-8.3412 -0.56879,-12.5133"/><path style="fill:none;stroke:#000;stroke-width:1px;stroke-linecap:butt;stroke-linejoin:miter;stroke-opacity:1" d="m137.8368 139.63752c-2.65436.85371-1.1376 2.56007-.28484 4.64565.85275 2.08558 1.04235 4.55027 1.23193 7.39423.18959 2.84395.37918 6.06701 1.13751 6.91968s2.08547-.66407 3.31779-2.4651c1.23232-1.80104 2.36986-3.88654 2.74908-3.79149.37922.0951 3e-5 2.37015-.0946 4.26626-.0947 1.89612.0949 3.41286.85336 3.69662.75842.28376 2.08556-.6642 3.22295-2.6546s2.08535-5.02386 2.65429-5.5924c.56894-.56854.75853 1.32738.75843 3.31806-1e-4 1.99067-.18969 4.07618.0953 5.11851.28494 1.04232 1.04331 1.04232 2.1803-.56906 1.13698-1.61138 2.65371-4.83443 3.31745-7.39366.66374-2.55923.47415-4.45514-.28393-6.44588s-2.08522-4.07624-2.93827-5.30869c-.85306-1.23246-1.23224-1.61164-4.83462-1.80174-3.60238-.19009-10.42768-.19009-13.08205.66361z" id="path66" inkscape:path-effect="#path-effect68" inkscape:original-d="m 133.66474,138.78382 c 1.51776,1.70735 3.03453,3.41371 4.55029,5.11907 0.1906,2.46579 0.38019,4.93048 0.56879,7.39422 0.19059,3.22419 0.38019,6.44724 0.56878,9.66936 1.3282,-1.51579 2.65534,-3.03252 3.9815,-4.55029 1.1386,-2.08459 2.27615,-4.17009 3.41272,-6.25664 -0.3782,2.27619 -0.75738,4.55129 -1.13757,6.82543 0.1906,1.51779 0.38019,3.03453 0.56878,4.55029 1.3282,-0.947 2.65534,-1.89495 3.98151,-2.84393 0.94899,-3.03259 1.89695,-6.06605 2.84393,-9.10058 0.1906,1.89699 0.38019,3.79291 0.56878,5.68786 -0.18859,2.08659 -0.37819,4.1721 -0.56878,6.25665 0.75939,0.001 1.51776,0.001 2.27514,0 1.5178,-3.22219 3.03453,-6.44524 4.55029,-9.66936 -0.1886,-1.895 -0.37819,-3.79091 -0.56878,-5.68787 -1.3262,-2.08459 -2.65334,-4.17009 -3.98151,-6.25664 -0.3782,-0.3782 -0.75738,-0.75738 -1.13757,-1.13757 -6.82457,0.001 -13.64987,0.001 -20.4763,0 z"/><path style="fill:none;stroke:#000;stroke-width:1px;stroke-linecap:butt;stroke-linejoin:miter;stroke-opacity:1" d="m153.57225 138.78382c-1.7053-1.51583-3.41166-3.03259-5.78161-3.98097-2.36994-.94838-5.4034-1.32757-8.05796-1.23292-2.65456.0946-4.92967.66342-6.25729 1.42216-1.32763.75874-1.70681 1.7067-2.46516 2.9389-.75835 1.23221-1.8959 2.74894-3.12831 6.4464-1.2324 3.69746-2.55954 9.5748-3.50748 16.116-.94793 6.5412-1.51671 13.74568-2.08542 20.94938" id="path70" inkscape:path-effect="#path-effect72" inkscape:original-d="m 153.57225,138.78382 c -1.70535,-1.51577 -3.41171,-3.03253 -5.11907,-4.55029 -3.03259,-0.3782 -6.06605,-0.75739 -9.10058,-1.13758 -2.27419,0.5698 -4.54929,1.13858 -6.82543,1.70636 -0.3782,0.949 -0.75738,1.89696 -1.13757,2.84393 -1.1366,1.5178 -2.27415,3.03453 -3.41272,4.55029 -1.3262,5.87858 -2.65334,11.75592 -3.9815,17.63237 -0.5678,7.20577 -1.13658,14.41025 -1.70636,21.61387"/><path style="fill:none;stroke:#000;stroke-width:1px;stroke-linecap:butt;stroke-linejoin:miter;stroke-opacity:1" d="m314.0655 223.34327c-3.50722.56892-7.48873.37932-11.28095 1.04279-3.79222.66347-7.39446 2.18021-9.95431 3.88675-2.55985 1.70654-4.07658 3.60245-5.68808 5.30874-1.6115 1.70629-3.31782 3.22302-4.55032 4.64519-1.2325 1.42216-1.99087 2.7493-2.55963 4.64553-.56876 1.89624-.94795 4.36093-.66325 6.82588.2847 2.46496 1.23266 4.92965 2.56011 7.01511 1.32746 2.08546 3.03378 3.79179 5.40385 5.40316s5.40354 3.12811 8.81629 4.92931c3.41275 1.8012 7.20458 3.88671 10.1433 5.68797 2.93872 1.80125 5.02423 3.31799 7.48892 5.59327 2.46468 2.27528 5.30856 5.30874 8.34221 7.86816s6.25671 4.64493 9.38506 6.73052 6.16181 4.17109 10.14322 4.92902c3.98142.75793 8.9108.18916 12.51278-.94844s5.87708-2.84392 7.77287-5.02408c1.8958-2.18015 3.41253-4.83443 4.55014-8.34175 1.1376-3.50732 1.89597-7.86792 1.80136-12.13368-.0946-4.26575-1.04256-8.43676-2.08498-11.0912-1.04242-2.65443-2.17997-3.79198-2.74926-6.16196-.56928-2.36997-.56928-5.97221-1.23245-8.62651-.66316-2.65431-1.9903-4.36063-3.50735-4.74045-1.51704-.37983-3.22336.56812-5.78257-.47412-2.55922-1.04224-5.97186-4.0757-8.91054-6.16145-2.93868-2.08576-5.40338-3.2233-8.34214-4.2662-2.93877-1.0429-6.35142-1.99086-7.20488-2.74951s.85287-1.32743 1.80046-1.99057c.94759-.66313 1.13718-1.4215-.0945-2.27483-1.2317-.85333-3.88598-1.80128-6.73031-1.61199-2.84433.18929-5.8778 1.51643-9.38502 2.08534z" id="path96" inkscape:path-effect="#path-effect98" inkscape:original-d="m 314.53873,224.10173 c -3.9805,-0.18859 -7.96201,-0.37819 -11.94451,-0.56878 -3.60138,1.51779 -7.20362,3.03452 -10.80694,4.55029 -1.51579,1.89699 -3.03252,3.7929 -4.55029,5.68786 -1.70539,1.51779 -3.41171,3.03452 -5.11907,4.55029 -0.7574,1.32819 -1.51576,2.65533 -2.27515,3.9815 -0.37819,2.46579 -0.75738,4.93048 -1.13757,7.39422 0.949,2.46579 1.89696,4.93048 2.84393,7.39422 1.7074,1.70739 3.41372,3.41372 5.11908,5.11907 3.03458,1.5178 6.06805,3.03453 9.10058,4.55029 3.79298,2.08659 7.58481,4.1721 11.37572,6.25665 2.08659,1.51779 4.1721,3.03453 6.25665,4.55029 2.84498,3.03459 5.68886,6.06805 8.53179,9.10058 3.22418,2.08659 6.44724,4.1721 9.66936,6.25665 3.03459,2.08659 6.06805,4.17209 9.10058,6.25664 4.93058,-0.56779 9.85996,-1.13657 14.78844,-1.70636 2.27619,-1.70539 4.55129,-3.41171 6.82543,-5.11907 1.5178,-2.65339 3.03453,-5.30767 4.55029,-7.96301 0.7594,-4.35978 1.51777,-8.72038 2.27515,-13.08208 -0.947,-4.17018 -1.89496,-8.34119 -2.84393,-12.51329 -1.1366,-1.1366 -2.27415,-2.27415 -3.41272,-3.41272 10e-4,-3.60138 10e-4,-7.20362 0,-10.80694 -1.3262,-1.70539 -2.65334,-3.41171 -3.9815,-5.11907 -1.7054,0.949 -3.41172,1.89695 -5.11908,2.84393 -3.41178,-3.03259 -6.82443,-6.06605 -10.23815,-9.10058 -2.46379,-1.13659 -4.92848,-2.27414 -7.39422,-3.41271 -3.41178,-0.947 -6.82443,-1.89496 -10.23815,-2.84394 1.70739,-0.56779 3.41372,-1.13657 5.11908,-1.70635 0.1906,-0.7574 0.38019,-1.51577 0.56878,-2.27515 -2.65339,-0.94699 -5.30767,-1.89495 -7.963,-2.84393 -3.03259,1.3282 -6.06606,2.65534 -9.10058,3.9815 z"/><path style="fill:none;stroke:#000;stroke-width:1px;stroke-linecap:butt;stroke-linejoin:miter;stroke-opacity:1" d="m314.0655 223.34327c1.29621 1.58108 2.59152 3.16107 4.18723 3.95052 1.59571.78945 3.49162.78945 5.29267.59977 1.80104-.18969 3.50736-.56887 5.21298-.9479" id="path104" inkscape:path-effect="#path-effect106" inkscape:original-d="m 314.0655,223.34327 c 1.29631,1.58099 2.59163,3.16098 3.88595,4.73997 1.89699,0.001 3.7929,0.001 5.68786,0 1.70739,-0.3782 3.41371,-0.75738 5.11907,-1.13758"/><path style="fill:none;stroke:#000;stroke-width:1px;stroke-linecap:butt;stroke-linejoin:miter;stroke-opacity:1" d="m355.49133 240.59653c-.37933 2.08634-.75852 4.17189-.56868 6.54206.18985 2.37017.94821 5.02445 1.89663 6.63572s2.08597 2.18005 3.41305 2.46414c1.32708.28409 2.84381.28409 4.35958.28409" id="path108" inkscape:path-effect="#path-effect110" inkscape:original-d="m 355.49133,240.59653 c -0.37819,2.08655 -0.75738,4.1721 -1.13757,6.25665 0.75939,2.65539 1.51776,5.30967 2.27514,7.963 1.1386,0.5698 2.27615,1.13858 3.41272,1.70636 1.51779,0.001 3.03452,0.001 4.55029,0"/><path style="fill:none;stroke:#000;stroke-width:1px;stroke-linecap:butt;stroke-linejoin:miter;stroke-opacity:1" d="m314.13661 268.56297c.0235.42667.92411 2.22783 2.22789 3.41241 1.30379 1.18457 3.01011 1.75334 4.52678 2.03754 1.51668.28419 2.84382.28419 4.09955-.0714s2.44068-1.06655 2.55934-1.27985c.11866-.2133-.8293.0711-2.10888.16601-1.27957.0949-2.8911 13e-5-4.1708-.23666-1.2797-.23678-2.22766-.61597-3.08088-1.06611-.85322-.45014-1.61158-.97152-2.41747-1.70608s-1.65905-1.68252-1.63553-1.25586z" id="path112" inkscape:path-effect="#path-effect114" inkscape:original-d="m 313.25896,267.18728 c 0.90158,1.80216 1.80216,3.60332 2.70173,5.40347 1.7074,0.5698 3.41372,1.13857 5.11908,1.70636 1.32819,0.001 2.65533,0.001 3.9815,0 1.186,-0.71 2.37094,-1.42097 3.55492,-2.13295 -0.947,0.2854 -1.89496,0.56979 -2.84394,0.85318 -1.61059,-0.0938 -3.22212,-0.18859 -4.83468,-0.28439 -0.94699,-0.3782 -1.89495,-0.75738 -2.84393,-1.13757 -0.75739,-0.5204 -1.51576,-1.04178 -2.27514,-1.56417 -0.8522,-0.94699 -1.70536,-1.89495 -2.55954,-2.84393 z"/><path style="fill:none;stroke:#000;stroke-width:1px;stroke-linecap:butt;stroke-linejoin:miter;stroke-opacity:1" d="m316.38761 253.5838c.94841-.47413 2.32298-.75853 3.46078-.71079 1.13781.0477 2.03837.42692 3.08103 1.25668 1.04266.82975 2.22761 2.1095 3.29414 3.17594s2.01448 1.91959 2.32194 2.77257c.30747.85298-.0243 1.70615-.66388 2.34567-.63956.63951-1.58752 1.0661-2.53514 1.01912-.94762-.047-1.89558-.56835-3.34128-1.4452-1.44569-.87684-3.389-2.10919-4.74006-3.27027-1.35106-1.16108-2.10943-2.25124-2.22837-3.12863s.40243-1.54096 1.35084-2.01509z" id="path118" inkscape:path-effect="#path-effect120" inkscape:original-d="m 315.96069,253.39422 c 1.37557,-0.28339 2.75014,-0.56779 4.1237,-0.85318 0.9016,0.3802 1.80216,0.75938 2.70174,1.13757 1.18599,1.2808 2.37094,2.56054 3.55491,3.83931 0.949,0.8542 1.89695,1.70736 2.84393,2.55954 -0.3308,0.85419 -0.66258,1.70736 -0.99537,2.55953 -0.947,0.4276 -1.89496,0.85418 -2.84393,1.27977 -0.947,-0.52039 -1.89496,-1.04177 -2.84394,-1.56416 -1.94239,-1.23139 -3.8857,-2.46374 -5.83005,-3.69711 -0.7574,-1.08919 -1.51577,-2.17935 -2.27515,-3.27052 0.5224,-0.6626 1.04378,-1.32617 1.56416,-1.99075 z"/><path style="fill:none;stroke:#000;stroke-width:1px;stroke-linecap:butt;stroke-linejoin:miter;stroke-opacity:1" d="m334.49414 264.03577c.3311-1.63541 1.84787-4.43195 3.43576-7.06267 1.5879-2.63072 3.24683-5.09542 4.69314-6.23301 1.44632-1.1376 2.67867-.94801 3.53157-.355.85291.59301 1.32689 1.58837 1.445 2.46497.1181.8766-.11888 1.63495-.71133 2.60639-.59244.97144-1.5404 2.15639-2.82018 3.72056-1.27977 1.56417-2.8913 3.50748-4.31306 4.81081s-2.6541 1.9669-3.69647 2.06212c-1.04237.0952-1.89553-.37876-1.56443-2.01417z" id="path122" inkscape:original-d="m 333.30867,265.19653 c 1.51776,-2.79553 3.03453,-5.59206 4.55029,-8.38959 1.65999,-2.46379 3.31892,-4.92848 4.97688,-7.39422 1.23339,0.1906 2.46574,0.38019 3.69711,0.56878 0.475,0.9964 0.94898,1.99175 1.42196,2.98613 -0.236,0.7594 -0.47298,1.51776 -0.71098,2.27514 -0.94699,1.186 -1.89495,2.37095 -2.84393,3.55492 -1.61059,1.94439 -3.22212,3.8877 -4.83468,5.83006 -1.2314,0.66459 -2.46374,1.32816 -3.69711,1.99075 -0.8522,-0.473 -1.70536,-0.94698 -2.55954,-1.42197 z" inkscape:path-effect="#path-effect124"/><path style="fill:none;stroke:#000;stroke-width:1.1933px;stroke-linecap:butt;stroke-linejoin:miter;stroke-opacity:1" d="m342.08232 251.76839c-.76763.74386-.66861 1.64841-.42078 2.553.24783.9046.64394 1.80914 1.41174 2.42237.7678.61324 1.90659.93629 2.67326.35509.76668-.5812 1.16278-2.06722 1.16316-3.42381 38e-5-1.35658-.39572-2.58417-1.41078-2.90808-1.01505-.3239-2.64897.25758-3.4166 1.00143z" id="path138" inkscape:path-effect="#path-effect140" inkscape:original-d="m 341.2155,251.60622 c 0.10007,0.90593 0.1991,1.81048 0.29708,2.71367 0.39716,0.90594 0.79326,1.81048 1.18834,2.71367 1.13988,0.32442 2.27867,0.64747 3.41645,0.96917 0.39716,-1.48473 0.79327,-2.97075 1.18833,-4.45817 -0.39507,-1.22628 -0.79117,-2.45387 -1.18833,-3.68284 -1.63295,0.58287 -3.26687,1.16436 -4.90187,1.7445 z"/><path style="fill:none;stroke:#000;stroke-width:1px;stroke-linecap:butt;stroke-linejoin:miter;stroke-opacity:1" d="m310.56662 248.7674c.3311-1.63541 1.84787-4.43195 3.43576-7.06267 1.5879-2.63072 3.24683-5.09542 4.69314-6.23301 1.44632-1.1376 2.67867-.94801 3.53157-.355.85291.59301 1.32689 1.58837 1.445 2.46497.1181.8766-.11888 1.63495-.71133 2.60639-.59244.97144-1.5404 2.15639-2.82018 3.72056-1.27977 1.56417-2.8913 3.50748-4.31306 4.81081-1.42176 1.30333-2.6541 1.9669-3.69647 2.06212-1.04237.0952-1.89553-.37876-1.56443-2.01417z" id="path122-3" inkscape:path-effect="#path-effect168" inkscape:original-d="m 309.38115,249.92816 c 1.51776,-2.79553 3.03453,-5.59206 4.55029,-8.38959 1.65999,-2.46379 3.31892,-4.92848 4.97688,-7.39422 1.23339,0.1906 2.46574,0.38019 3.69711,0.56878 0.475,0.9964 0.94898,1.99175 1.42196,2.98613 -0.236,0.7594 -0.47298,1.51776 -0.71098,2.27514 -0.94699,1.186 -1.89495,2.37095 -2.84393,3.55492 -1.61059,1.94439 -3.22212,3.8877 -4.83468,5.83006 -1.2314,0.66459 -2.46374,1.32816 -3.69711,1.99075 -0.8522,-0.473 -1.70536,-0.94698 -2.55954,-1.42197 z"/><path style="fill:none;stroke:#000;stroke-width:1.1933px;stroke-linecap:butt;stroke-linejoin:miter;stroke-opacity:1" d="m318.1548 236.50002c-.76763.74386-.66861 1.64841-.42078 2.553.24783.9046.64394 1.80914 1.41174 2.42237.7678.61324 1.90659.93629 2.67326.35509.76668-.5812 1.16278-2.06722 1.16316-3.42381 38e-5-1.35658-.39572-2.58417-1.41078-2.90808-1.01505-.3239-2.64897.25758-3.4166 1.00143z" id="path138-6" inkscape:path-effect="#path-effect170" inkscape:original-d="m 317.28798,236.33785 c 0.10007,0.90593 0.1991,1.81048 0.29708,2.71367 0.39716,0.90594 0.79326,1.81048 1.18834,2.71367 1.13988,0.32442 2.27867,0.64747 3.41645,0.96917 0.39716,-1.48473 0.79327,-2.97075 1.18833,-4.45817 -0.39507,-1.22628 -0.79117,-2.45387 -1.18833,-3.68284 -1.63295,0.58287 -3.26687,1.16436 -4.90187,1.7445 z"/><path style="fill:none;stroke:#000;stroke-width:1px;stroke-linecap:butt;stroke-linejoin:miter;stroke-opacity:1" d="m321.19863 243.46474c1.30381-1.06588 1.44601-.82888 1.61163 58e-5s.35521 2.2514.30763 3.45986c-.0476 1.20845-.33195 2.2038-.97142 2.84326-.63947.63947-1.63483.92386-3.08032 1.01878-1.44548.0949-3.3414 12e-5-4.10035-.28424-.75895-.28436-.37977-.75835 1.04228-2.18041s3.88674-3.79195 5.19055-4.85783z" id="path174" inkscape:path-effect="#path-effect176" inkscape:original-d="m 322.35954,242.16069 c 0.14319,0.238 0.28539,0.47499 0.42659,0.71099 0.1906,1.42299 0.38019,2.84493 0.56878,4.26589 -0.2834,0.9964 -0.56778,1.99175 -0.85318,2.98613 -0.99439,0.2854 -1.98975,0.56979 -2.98612,0.85318 -1.89499,-0.0938 -3.79091,-0.1886 -5.68786,-0.28439 0.38019,-0.473 0.75938,-0.94698 1.13757,-1.42197 2.46579,-2.36899 4.93048,-4.73888 7.39422,-7.10983 z"/><path style="fill:none;stroke:#000;stroke-width:1px;stroke-linecap:butt;stroke-linejoin:miter;stroke-opacity:1" d="m318.1548 236.50002c-3.00531-1.38307-6.01182-2.76671-8.41569-3.69564-2.40386-.92893-4.20498-1.40291-6.2432-1.7585s-4.31332-.59258-6.49383-.52161c-2.18052.071-4.26603.45016-5.64062.71084-1.3746.26069-2.03817.40288-2.67849.87703-.64032.47415-1.2565 1.27992-1.56453 1.92023-.30804.64032-.30804 1.11429-.11788 1.4934.19016.37912.56935.66351 1.37516.94762.80582.28411 2.03817.5685 3.12833.78174 1.09015.21325 2.03811.35544 3.22314.73482 1.18503.37937 2.60696.99555 4.00524 1.58803s2.77283 1.16125 4.07627 1.8961c1.30344.73486 2.53578 1.63541 3.6023 2.29888 1.06652.66346 1.96708 1.09004 2.60681 1.5406.63973.45056 1.01891.92453 1.35038 1.0661.33147.14157.61586-.048 1.32665-1.11428.71078-1.06626 1.84834-3.00958 2.99618-4.61675s2.30578-2.87785 3.46378-4.14861" id="path178" inkscape:path-effect="#path-effect180" inkscape:original-d="m 318.1548,236.50002 c -3.00551,-1.38263 -6.01203,-2.76626 -9.01954,-4.15089 -1.80019,-0.47299 -3.60131,-0.94697 -5.40347,-1.42196 -2.27419,-0.236 -4.54929,-0.47299 -6.82543,-0.71098 -2.08459,0.38019 -4.1701,0.75938 -6.25665,1.13757 -0.6626,0.1432 -1.32617,0.28539 -1.99075,0.42659 -0.6152,0.80679 -1.23137,1.61256 -1.84856,2.41734 10e-4,0.475 10e-4,0.94897 0,1.42196 0.3802,0.2854 0.75939,0.56979 1.13758,0.85318 1.23339,0.2854 2.46574,0.56979 3.69711,0.85318 0.94899,0.1432 1.89695,0.28539 2.84393,0.42659 1.42299,0.6172 2.84493,1.23337 4.26589,1.84856 1.3756,0.56979 2.75014,1.13857 4.1237,1.70635 1.2334,0.9016 2.46574,1.80216 3.69711,2.70174 0.9016,0.4276 1.80216,0.85418 2.70174,1.27977 0.3802,0.475 0.75938,0.94897 1.13757,1.42196 0.2854,-0.1886 0.56979,-0.37819 0.85318,-0.56878 1.13859,-1.94239 2.27614,-3.88571 3.41272,-5.83006 1.15898,-1.26973 2.31691,-2.54041 3.47387,-3.81212 0,0 10e-4,0.001 0,0"/><path style="fill:none;stroke:#000;stroke-width:1px;stroke-linecap:butt;stroke-linejoin:miter;stroke-opacity:1" d="m334.3837 263.28599c-.37868.095-.86863-.56081-1.11403-1.67089-.24539-1.11008-.24539-2.67422-.0559-3.81211.1895-1.1379.56868-1.84887 1.16153-2.37055.59284-.52167 1.3986-.85346 2.22831-1.04298.82971-.18951 1.68287-.23691 2.13277-.0941.4499.14279.4973.47458.23644 1.09034-.26086.61577-.82964 1.51633-1.49324 2.58282-.66359 1.0665-1.42196 2.29884-1.93538 3.33793-.51342 1.03909-.78184 1.88452-1.16051 1.97957z" id="path182" inkscape:path-effect="#path-effect184" inkscape:original-d="m 334.49414,264.03577 c -0.48895,-0.65486 -0.97891,-1.31071 -1.46986,-1.96756 0.001,-1.56319 0.001,-3.12733 0,-4.69249 0.3802,-0.70999 0.75938,-1.42096 1.13757,-2.13295 0.8068,-0.33079 1.61256,-0.66258 2.41734,-0.99537 0.8542,-0.0464 1.70736,-0.0938 2.55954,-0.1422 0.0484,0.3328 0.0958,0.66459 0.1422,0.99538 -0.5678,0.90159 -1.13658,1.80215 -1.70636,2.70173 -0.7574,1.2334 -1.51577,2.46574 -2.27515,3.69711 -0.26743,0.84647 -0.53585,1.6919 -0.80528,2.53635 z"/><path style="fill:none;stroke:#000;stroke-width:1px;stroke-linecap:butt;stroke-linejoin:miter;stroke-opacity:1" d="m338.25312 266.1902c.40348.45049 1.71162.86618 2.81591 1.47719 1.10429.61102 2.00485 1.41679 3.28466 2.48324 1.27981 1.06646 2.93874 2.3936 4.2421 3.6735 1.30335 1.2799 2.25131 2.51224 3.45999 4.10012 1.20868 1.58789 2.67801 3.53121 3.98146 5.33239 1.30345 1.80119 2.441 3.46012 3.12822 4.50291.68723 1.0428.92422 1.46939 1.32728 1.68209.40307.2127.97184.2127 1.54013-.0717.5683-.2844 1.13707-.85318 1.51622-1.96663.37914-1.11346.56873-2.77238.6162-4.76307.0475-1.99069-.0473-4.31319-.66326-6.65937-.61592-2.34619-1.75347-4.71609-2.9858-7.03866-1.23233-2.32258-2.55947-4.59768-3.76801-6.30413-1.20854-1.70644-2.29869-2.84399-3.69686-3.81591-1.39816-.97191-3.10449-1.77767-4.12357-2.25169-1.01907-.47401-1.35086-.61621-2.15728.0235-.80642.63966-2.08617 2.06161-3.03418 3.17553-.94801 1.11393-1.56419 1.9197-2.32248 2.70167-.75828.78198-1.65884 1.54035-2.36035 2.16202s-1.20385 1.10655-.80038 1.55704z" id="path186" inkscape:path-effect="#path-effect188" inkscape:original-d="m 337.34727,266.22463 c 1.30913,0.41668 2.61727,0.83237 3.92441,1.24705 0.90159,0.80679 1.80215,1.61256 2.70173,2.41734 1.65999,1.32819 3.31892,2.65533 4.97688,3.9815 0.949,1.2334 1.89695,2.46574 2.84393,3.69711 1.47039,1.94439 2.93973,3.88771 4.40809,5.83006 1.1386,1.65999 2.27615,3.31892 3.41272,4.97688 0.238,0.42759 0.47499,0.85418 0.71098,1.27977 0.5698,0.001 1.13857,0.001 1.70636,0 0.5698,-0.5678 1.13857,-1.13658 1.70636,-1.70636 0.1906,-1.658 0.38019,-3.31692 0.56878,-4.97688 -0.0938,-2.32159 -0.18859,-4.64409 -0.28439,-6.96763 -1.13659,-2.36899 -2.27414,-4.73889 -3.41271,-7.10983 -1.3262,-2.27419 -2.65334,-4.54929 -3.98151,-6.82543 -1.08919,-1.1366 -2.17934,-2.27415 -3.27052,-3.41272 -1.70539,-0.80479 -3.41171,-1.61056 -5.11907,-2.41734 -0.3308,-0.1412 -0.66259,-0.28339 -0.99538,-0.42659 -1.27879,1.42299 -2.55854,2.84493 -3.83931,4.2659 -0.61519,0.80679 -1.23137,1.61256 -1.84855,2.41734 -0.8996,0.75939 -1.80016,1.51776 -2.70173,2.27514 -0.50137,0.48591 -1.00371,0.97079 -1.50707,1.45469 z" sodipodi:nodetypes="ccccccccccccccccccccc"/><path style="fill:none;stroke:#000;stroke-width:1px;stroke-linecap:butt;stroke-linejoin:miter;stroke-opacity:1" d="m137.8368 139.63752c-2.33759-.18968-4.67626-.37945-5.94072-.42708-1.26447-.0476-1.45406.0472-1.64406.14216" id="path190" inkscape:path-effect="#path-effect192" inkscape:original-d="m 137.8368,139.63752 c -2.33766,-0.18877 -4.67633,-0.37854 -7.01599,-0.56931 -0.1886,0.0958 -0.37819,0.19059 -0.56879,0.28439"/><path style="fill:none;stroke:#000;stroke-width:1px;stroke-linecap:butt;stroke-linejoin:miter;stroke-opacity:1" d="m225.23931 145.04046c-2.17955.37905-4.3599.75824-6.54104 1.13757" id="path194" inkscape:path-effect="#path-effect196" inkscape:original-d="m 225.23931,145.04046 c -2.17935,0.38019 -4.3597,0.75938 -6.54104,1.13757"/><path style="fill:none;stroke:#000;stroke-width:1px;stroke-linecap:butt;stroke-linejoin:miter;stroke-opacity:1" d="m5.2144667 125.51281c4.6456806-9.10091 13.9358563-6.44657 28.3452923-2.74945 14.409436 3.69713 33.937369 8.43692 57.352623 11.94436 23.415258 3.50744 50.716448 5.78254 71.382478 7.48891 20.66603 1.70637 34.69581 2.84392 50.33756 3.31785 15.64175.47394 32.89458.28435 52.23346-1.23249 19.33887-1.51684 40.76272-4.36071 53.18109-6.44632 12.41837-2.08562 15.83102-3.41276 20.38113-6.63585 4.5501-3.22309 10.23786-8.34207 18.10613-16.11555 7.86827-7.77348 17.91662-18.201016 28.2496-31.946725 10.33298-13.745709 20.95011-30.808946 26.82816-39.340875 5.87805-8.53193 7.0156-8.53193 6.7306-5.498011-.28501 3.03392-1.99133 9.10085-5.02491 17.253464s-7.39418 18.390561-11.75492 27.775569c-4.36073 9.385007-8.72134 17.916628-11.56529 23.604538-2.84395 5.68792-4.17109 8.53179-3.98087 9.95353.19021 1.42175 1.89654 1.42175 9.48026-1.13794s21.04472-7.67866 32.42048-12.41859c11.37576-4.739926 20.66575-9.100533 32.04164-14.124868 11.37588-5.024335 24.83689-10.712085 35.16982-15.641594 10.33293-4.929509 17.53741-9.100525 21.42427-10.616584 3.88685-1.516059 4.45562-.378511 4.55005 1.422483.0944 1.800995-.28475 4.265686-1.70675 7.298942s-3.88669 6.635496-7.86811 10.616885c-3.98142 3.98139-9.47958 8.341998-16.68417 12.892286s-16.1154 9.29008-25.12126 13.93521c-9.00585 4.64513-18.10625 9.19533-26.92252 13.65086-8.81628 4.45553-17.3479 8.81614-29.10289 13.84047-11.75498 5.02433-26.73272 10.71208-43.89124 16.40001-17.15852 5.68792-36.49686 11.37567-54.41374 16.02081-17.91688 4.64513-34.41134 8.24737-44.83913 10.52253-10.42779 2.27515-14.7884 3.22311-28.53421 4.45555-13.7458 1.23243-36.87597 2.74917-57.63683 3.69717-20.76085.948-39.15123 1.32718-49.0102 1.51678-9.85896.18961-11.1861.18961-18.86479-.8531s-21.708468-3.12822-34.601103-4.55024C69.013542 182.3908 57.258863 181.63244 46.641463 180.49491 36.024064 179.35738 26.544484 177.84064 19.055346 177.08217 11.566208 176.3237 6.068052 176.3237 3.3184191 165.89624.56878613 155.46879.56878613 134.61372 5.2144667 125.51281z" id="path198" inkscape:original-d="m 0.56878613,113.75723 c 9.29117337,2.65533 18.58134687,5.30967 27.87051987,7.963 19.529715,4.74098 39.057648,9.48077 58.584971,14.21965 27.303283,2.27619 54.604473,4.55129 81.905203,6.82544 14.03134,1.13859 28.06112,2.27614 42.09017,3.41271 17.25453,-0.18859 34.50736,-0.37819 51.75954,-0.56878 21.42571,-2.84299 42.84956,-5.68686 64.27283,-8.53179 3.41379,-1.3262 6.82644,-2.65334 10.23815,-3.98151 5.68898,-5.11817 11.37673,-10.23715 17.06359,-15.35722 10.04975,-10.42696 20.09811,-20.854493 30.14566,-31.283239 10.61856,-17.062925 21.23568,-34.126167 31.85203,-51.190751 1.13859,10e-4 2.27614,10e-4 3.41271,0 -1.70539,6.068173 -3.41171,12.135104 -5.11907,18.201156 -4.35978,10.239355 -8.72039,20.477301 -13.08208,30.714451 -4.35979,8.532962 -8.72039,17.064583 -13.08209,25.595373 -1.32619,2.84499 -2.65333,5.68886 -3.9815,8.53179 1.70739,0.001 3.41372,0.001 5.11908,0 13.46254,-5.11817 26.92354,-10.23715 40.38381,-15.35722 9.29136,-4.359782 18.58135,-8.720388 27.87052,-13.082082 13.46254,-5.686975 26.92355,-11.374722 40.38382,-17.063584 7.20577,-4.170181 14.41025,-8.341196 21.61387,-12.513295 0.5698,1.138595 1.13857,2.276145 1.70636,3.412717 -0.3782,2.465789 -0.75738,4.93048 -1.13757,7.39422 -2.46379,3.603384 -4.92848,7.205624 -7.39422,10.806936 -5.49738,4.361781 -10.99554,8.722388 -16.4948,13.082081 -8.91016,4.740979 -17.82097,9.480767 -26.73295,14.219657 -9.09976,4.55138 -18.20016,9.10157 -27.30173,13.65086 -8.53097,4.36178 -17.06259,8.72239 -25.59538,13.08208 -14.97733,5.68898 -29.95507,11.37673 -44.9341,17.06359 -19.33812,5.68897 -38.67646,11.37672 -58.01619,17.06358 -16.49413,3.60339 -32.98859,7.20563 -49.48439,10.80694 -4.35978,0.94899 -8.72039,1.89695 -13.08208,2.84393 -23.1301,1.51779 -46.26027,3.03453 -69.39191,4.55029 -18.39012,0.3802 -36.7805,0.75938 -55.17225,1.13757 -1.3262,0.001 -2.65334,0.001 -3.98151,0 -14.02933,-2.08459 -28.059112,-4.1701 -42.09017,-6.25665 -11.754148,-0.75739 -23.508827,-1.51576 -35.26474,-2.27514 -9.478958,-1.51579 -18.958537,-3.03253 -28.439306,-4.55029 -5.497376,0.001 -10.995532,0.001 -16.49479787,0 0.001,-20.85491 0.001,-41.70998 0,-62.56647 z" inkscape:path-effect="#path-effect200"/><path style="fill:none;stroke:#000;stroke-width:1px;stroke-linecap:butt;stroke-linejoin:miter;stroke-opacity:1" d="m148.45318 190.54335c.94787-7.48816 1.89584-14.97717 2.7016-20.04895.80575-5.07178 1.46932-7.72607 2.13308-10.38111" id="path202" inkscape:original-d="m 148.45318,190.54335 c 0.94898,-7.48802 1.89695,-14.97703 2.84393,-22.46705 0.6646,-2.65339 1.32817,-5.30767 1.99075,-7.96301" inkscape:path-effect="#path-effect204"/><path id="path206" style="display:inline;mix-blend-mode:normal;fill:#45275f;fill-opacity:1;stroke:#000;stroke-width:.568786;stroke-opacity:1" d="m109.65638 96.827778c-2.49507-.01506-4.32031.459405-5.88351 1.217899-1.22581.594791-.88818.346529-1.92592 1.122581-.68057.508955-2.334042 2.099172-3.347996 3.472452l-1.330019 2.07453c-2.143899 3.65829-2.342515 6.82511-4.417972 17.27815-2.423381 12.20536-7.072001 40.21559-7.150589 40.71906-.221613 1.41974-.634124 1.44876-.202417 1.03273-1.201811 8.58661-1.999954 18.29983-2.668724 24.91964-1.816238 17.97802-2.29472 27.17975-2.30362 45.76291-.01469 30.60601 1.387585 38.11974 11.427058 61.37974 8.783169 20.34935 18.325849 34.25409 30.496669 45.50635 4.77479 4.41443 21.36278 15.4765 26.60735 18.04441 14.5138 7.10644 54.36653 13.26534 80.4105 13.28044 25.08762.0145 40.60963-5.20973 61.88867-20.82812 2.71661-1.99393 5.35016-3.625 5.85352-3.625.81131.0.91601 1.3245.91601 11.67578.0 24.35829-4.20846 47.46859-9.45508 56.03515-1.8642 3.04382-2.73312 2.53409-2.19561 4.4151 1.0966 3.83752 1.03644 3.69683 2.50753 3.02677 1.53693-.70005 2.40202-.4648 3.08066.61673.44883.71529.88439 2.66258 1.09125 3.91391.67867 4.10533 1.89676 7.62466 3.62792 9.59635.93628 1.06637 2.13602 2.23912 2.3902 2.23912.89229.0 7.71802-7.40637 10.6684-11.90965 5.28809-8.07142 11.20904-25.7019 12.84556-31.04559 6.41517-20.94741 7.27863-27.17866 12.15987-60.75899 2.0905-14.38149 3.50667-22.41578 4.24805-24.09179.61182-1.38311 3.89568-6.26368 7.29688-10.84375 14.66874-19.75302 22.08299-33.51351 32.07812-59.53321 5.81527-15.13851 8.02114-20.02216 6.40209-21.0228-.34828-.21525-2.08511-1.61951-2.73021-3.06509-1.03925-2.32883-1.20279-4.07264-1.43164-15.30078l.30594-12.45556-1.98759-1.89904c-.78374-.6165-2.1354-.55946-3.0039-.55946-1.96609.0-3.48551-2.77713-6.40679-8.33809-2.27474-4.33022-6.73841-8.61872-8.16333-8.61872-.46642.0-1.16743 1.0083-1.61492 2.02501-1.43338 3.2566-4.44247 1.88343-8.70075-3.94797-.61781-.84604-4.77188-4.68917-6.87145-3.56551-1.78971.95782-4.87068.64082-7.41703-1.39457-3.49038-2.78997-4.41548-2.95694-7.54883-1.36915-2.55683 1.29564-3.85285 1.9029-10.25065.77028l-4.68463.43446-1.61941 1.59801c-.55939.9376-3.60547 3.28184-7.38131 5.71278-8.05901 5.18851-18.48512 14.85216-30.62574 29.65263-4.36273 5.31855-8.59876 9.84538-9.17834 10.15556-3.98506 2.13274-6.65173-1.52028-13.68917-18.84909-6.73585-16.58616-9.51652-26.61491-10.36718-37.39844-.38624-4.89622.16059-5.52392-1.31206-5.52444-2.5979-94e-5-26.79613 1.72147-27.54035 1.97303-.53333.18027-1.3066 6.79482-1.01539 14.42062.60856 15.93649 3.41207 37.05941 5.31515 42.84159 8.69544 26.41971 8.76032 28.60774 7.74796 29.57435-1.31615 1.25667-8.79823 4.46329-15.60938 6.34522-5.49765 1.51894-6.10336 2.31485-20.17187 2.31885-15.63682.005-16.90624-.19055-21.66602-3.33204-4.00139-2.64093-7.92367-10.13509-12.39062-23.67968-5.74699-17.42592-9.18858-41.17426-8.39453-57.91406l.36133-7.62305-6.39844.36914c-3.51929.20278-9.08323-.24852-12.33784-.24752l-5.89654.62061.36133 6.71484c.57287 10.65406 3.9935 39.06029 7.71502 55.06996 4.91579 21.14735 10.52244 30.11641 19.79507 41.72846 2.52752 3.16519 5.29265 6.54117 5.29265 6.82267.0 1.74412-1.50194.39052-5.54102-4.98828C133.934 238.55584 130.10196 228.25418 124.60352 192.05277 122.3852 177.44753 121.36769 168.91 120.86719 160.96098l-.0376-9.81021.55126-17.92417c.99505-17.67588 1.19052-24.88637.51248-27.80765-.0923-.24941-.192-1.51351-.39498-1.69018-.3559-1.24543-.64675-2.23827-.96547-2.84576-.82755-1.213121-1.51818-1.799692-3.50806-2.832342-1.49719-.77696-4.10203-1.195176-6.5971-1.210235zm25.96546 1.539466s-3.63084 1.302632-4.72327 2.852916c-.86145 1.2225-1.16197 1.53768.92717 1.87955 1.18207.19345 4.29446.1497 5.70221-.017 1.40775-.16671 5.03189-.81726 7.93103-.83856 5.14824-.0378 7.16913.77922 5.88853-.17364-4.37433-3.254856-8.84542-4.584139-12.50452-4.132035zm96.52903 1.718986c-2.25672.0501-3.84928.46208-5.15868.75436-3.47775.77627-6.13928 3.52313-7.42815 6.01552l-1.3683 2.43234 4.34958.14734c1.57492-.1513 2.56624-.04 3.00218-.11636.71943-.12593 22.30163-.31268 22.69952-.71057.52255-.52255-3.75004-5.11136-6.63274-6.6804-.50947-.2773-3.0592-1.984488-7.54597-1.88482zm91.10691 84.87974c-1.79581-.22873 4.46215.23257 5.92777 1.12387 2.13804 1.30022 1.75735 1.80704.45638 3.52379l-1.83036 1.37667 4.72554 1.36517c5.47669 1.80186 11.70914 5.93408 16.50883 9.51882 4.81336 3.59495 4.90903 2.85919 6.75289 2.39642 3.59166-.90145 6.08904 2.52536 6.80859 9.34375.21459 2.03341.0303 4.7006.65094 6.10835 2.62859 5.96188 4.25676 8.87024 4.56586 14.4725.72472 13.13481-4.50104 23.52513-13.25977 26.85489-3.06715 1.16602-12.95563 1.75389-15.41203.94316-5.36224-1.76981-19.66275-12.27793-27.16928-19.74622-6.67523-6.64123-5.97179-4.66083-17.69196-11.001-4.97806-2.69294-9.86819-5.4798-11.31657-6.90434-4.75663-4.67831-6.44537-11.13894-4.58594-17.53516.86462-2.97421 1.71454-3.94172 6.56606-8.88246 3.01961-3.07513 6.3846-5.66712 7.36968-6.27707 3.25528-2.01564 11.49741-4.5404 17.45322-4.57357 1.714-.01 8.31009-1.07333 11.06055-1.72656 2.78307-.66098 2.4196-.38101 2.4196-.38101z" transform="translate(0.94681173,35.955356)" sodipodi:nodetypes="cssccsscsssssssssssssssssssssssscccsssssssscccssssssssssccssccccccsssssccccccsccsssssscssscccssssssscccssssssssssssssss"/><path id="path212" style="fill:#501616;fill-opacity:1;stroke:#000;stroke-width:.568786;stroke-opacity:1" d="m416.16992 2.5546875c-.12853-.048205-.35126.09544-.73047.4101563-.49134.4077769-6.30403 8.8214782-12.91797 18.6972652-19.06625 28.469268-27.34245 38.908493-44.48046 56.105469-10.81236 10.84957-19.562 18.343409-23.8711 20.44336-1.57894.769459-4.85226 1.902912-7.27344 2.519532-9.69952 2.47026-42.32807 6.75053-63.93945 8.38867-12.44788.94355-13.31599-.38185-12.86111.81452.92834 2.4417 1.48633 8.56905.85129 10.9274-.35199 1.30719-1.00341 2.68274-1.75582 3.54801-1.12247 1.29085-1.26509 1.73532-2.11008 1.22291-.56642-.34348-1.04211-2.08206-1.28638-3.23512-.62702-2.95981-1.22112-3.32774-1.22112-3.32774-.66446.18638-1.0156 3.207-1.41209 4.19475-.3365.83829-1.12109 2.36294-1.50331 1.90316-.0854.45307-1.42344-.89587-2.16169-3.5423-1.21856-4.36821-1.57217-4.50326-2.26924-1.45077-.45729 2.00253-1.00285 6.49707-2.12797 6.49707-2.04792.0-3.13397-2.36775-4.24184-8.02232-.47771-2.43825-1.35887-3.94403-3.09172-5.91265-2.03695-2.31409-2.21783-2.47433-4.32279-2.46733-1.57897.005-4.93546-.29817-5.6917-.0461l-3.83148-.22399c-6.68787-84e-5-51.09933-2.81347-55.39654-3.25649l-2.05374-.39969 1.25998 2.00728c.64243 1.19828.99274 3.08289.99475 5.49592.003 3.02557-.33736 4.39935-1.87305 7.56641-1.20352 2.48202-2.14863 4.04923-2.99005 4.36914-.3696.14052-.84777.46566-.54339-.60273.21656.9175-.36407 1.15414-.54178.43585.0.0-.94965-3.53667-.95975-4.94442l-.0195-3.69245-1.39516 3.34197c-1.54419 2.98227-2.87004 4.79241-4.11716 4.79241-1.38623.0-2.02089-.81103-2.02089-3.68607.0-1.35326.78527-4.21672.72259-4.21672-.0627.0-1.68565 2.72711-2.51374 3.97844-1.05538 1.59477-1.80344 2.23031-2.75187 2.23031-1.71317.0-2.1433-1.66453-2.27805-8.12003-.0602-2.88245-.44286-4.41564-1.58055-7.18326-1.18976-2.89429.72146-3.36728-1.42752-3.71092-.44447-.0711-3.02221-.0328-3.36422-.0364-1.21598-.38725-3.21641-.36662-3.48633-.44141-1.01491-.2809-5.26108-.8413-5.25909-.61654.001.13066.56984 1.98972.80011 3.71029.23028 1.72058.42182 5.17712.44922 7.67969l.10547 9.7168.12109 3.76367c-.63798 5.0459-1.10448 10.41557-1.3418 15.89843l-.36523 8.44532H132.918c5.95355.0 11.56564-.14907 12.4707-.33008l1.64453-.32813 1.57032-.0195-.0449.28125 14.01563-.39648c.75768-.0215 1.9644-.0741 2.8164-.10156l4.46094-.0586c.259-.003.46876-.0496.64063-.1289 7.16778-.26624 15.1708-.6012 21.16992-.92774 8.29006-.45123 15.98634-.82412 17.10156-.82812l2.02735-.006 4.0371-.58008v0c1.5263-.007 7.8905-.38427 13.52149-.83794 5.63098-.45368 10.75085-.8328 11.37891-.8418.47624-.007 2.79196.22746 5.37083-.36425l1.8401-.002c8.8371-.73699 30.37121-5.65364 58.03516-12.4986 46.09128-11.40448 89.80916-26.12399 119.89062-40.369143 13.47435-6.38082 52.83587-26.486931 60.57422-30.941406 16.6544-9.586891 27.73862-19.128132 31.79883-27.371094 1.59441-3.236963 2.08003-4.869876 1.94336-6.541016-.15174-1.855352-.37264-2.199774-1.32031-2.0625-.62567.09063-7.92088 3.469416-16.21094 7.507813-8.29006 4.038396-23.9026 11.229082-34.69531 15.978515-10.79272 4.749434-23.97482 10.549488-29.29297 12.888672-22.29569 9.80674-47.62199 19.14159-51.03906 18.8125-1.7806-.17147-1.856-.278085-1.8125-2.546875.0354-1.84558 1.93946-6.235356 8.63672-19.908203 8.9307-18.232526 13.84358-29.285125 18.13281-40.800781 2.6822-7.201097 4.75195-14.1290358 4.75195-15.9003908.0-.4569344-.0336-.6978883-.16211-.7460937zM14.384766 84.302734c-3.167938-.01028-4.9646422.773514-6.6640629 2.265625-4.8209085 4.23281-7.4501807 18.470821-6.0878906 32.968751 1.0780669 11.47314 3.1846441 16.78524 7.5019531 18.9082 2.4907654 1.22479 26.2568414 4.29834 51.9902344 6.72461 10.010636.94385 19.865026 1.89798 21.898438 2.1211l3.697265.40625.400391-1.9961c.219864-1.09746 1.312704-7.24122 2.429687-13.65429 2.650918-15.22011 4.599985-23.38486 6.580078-27.57618 1.040284-2.20206 2.279951-3.17782 1.890969-3.41822-.33055-.20429-3.054147-.90173-4.971047-1.11498C81.12932 98.6113 58.732463 94.096581 36.099609 88.457031 24.79598 85.640436 18.457829 84.315956 14.384766 84.302734z" transform="translate(0.94681173,35.955356)" sodipodi:nodetypes="cssssssssssscscssssscccccccsscccccsssssssscccscccccsccccccccsccccscccssssssssssssssccssssscccssscss"/><path id="path266" style="fill:#deaa87;fill-opacity:1;stroke:#000;stroke-width:.284393;stroke-opacity:1" d="m147.01367 102.80469c-4.94413-.0436-11.52487.98966-11.0508 2.55242.0159.33023.28267.95754.62001 1.70924 1.00409 2.2374 1.35659 4.553 1.74235 9.43345.17309 2.18983.308 4.4624.4763 4.98287l.63181 1.08319 1.20315-.91938c.39326-.36405 1.29746-1.72025 2.19089-3.12161 1.9632-3.07934 3.00832-3.49148 2.64986 1.42955.0142 2.40316.19826 3.90059.74626 4.02337.61825.20835 2.1336-1.69511 3.46508-4.86946 1.20033-2.86165 1.62582-3.52825 2.2333-3.52825.95066.0.93858.73002.97278 5.32416l.0805 3.92383.81974.01c.93561-.82752 3.40527-6.72326 3.87113-8.95754.31229-1.49775.33926-2.48264.12676-3.62897-.24345-1.31315-1.24561-4.12142-1.99487-5.29484-.33301-.85539-1.50939-2.28425-1.8325-2.60737-.56277-.56276-1.33544-.96199-5.39121-1.45436-.46469-.0564-.99264-.0848-1.56055-.0898z" transform="translate(0.94681173,35.955356)" sodipodi:nodetypes="ccsscccsccsscccsscsscc"/><path style="fill:#deaa87;fill-opacity:1;stroke:#000;stroke-width:.284393;stroke-opacity:1" d="m234.81141 161.19023c-1.35125-1.07955-1.27272-2.96176-1.99447-6.31567-.76136-3.53796-1.41166-4.89741-3.2793-6.85544l-2.03279-1.80074 11.32046-.0349c8.34058-.0257 10.91283-.61177 11.07558-.34843.65461 1.05917 1.7247 5.36043 1.7247 8.25156.0 2.84333-.31526 3.20227-1.03207 4.66183-.43374.88322-1.37561 2.18548-1.62356 2.39127-.6591.547-1.08161-.62149-1.82285-3.57692-.70234-2.8003-.7733-3.32503-1.74587-3.32503-.80668.0-1.07153.90928-1.61253 3.5703-.1908.9385-.65961 2.18637-.81219 2.47537-.2698.51102-.57371.38298-.92419-.12804-.19822-.289-.60734-1.5669-1.02164-2.81823-.98875-2.98644-1.49767-4.23698-2.35572-4.23698-.88204.0-.8419.77363-1.42437 4.21092-.55849 3.29583-.8126 4.4056-1.36069 4.4056-.22574.0-.61469-.15594-1.0785-.5265z" id="path268" sodipodi:nodetypes="ssscssssssssssssssss"/><path style="fill:#deaa87;fill-opacity:1;stroke:#000;stroke-width:.804385;stroke-opacity:1" d="m282.5125 478.05872c-5.61001-2.42997-9.97654-8.05702-9.97654-12.96624.0-3.2826 3.59417-9.8708 6.07205-11.51605 1.69912-1.12818 2.14007-1.66083 2.15769.3652.0358 4.12077 1.52494 4.50659 2.96262 3.0689 1.41485-1.41485 2.93989-2.55041 3.31562 2.02085.18406 2.23933 1.17406 1.94106 2.78213 1.334 2.10065-.79301 2.35146-1.71631 3.56531 5.81563.6076 3.77016 3.19307 8.59374 4.86181 9.54339 1.58395.9014.49144 1.21081-1.6707 2.32889-3.14472 1.6262-10.33409 1.62363-14.06999.005z" id="path272" sodipodi:nodetypes="ssssssssssss"/><path id="path274" style="fill:#faa;fill-opacity:1;stroke:#000;stroke-width:.284393;stroke-opacity:1" d="m296.75586 195.11914c-1.62755.005-3.21204.12534-4.63086.36719-1.54213.26286-3.2834.54406-3.73828.77929-.85075.43994-2.13434 2.35979-1.97266 2.86524.16116.50384 1.72996 1.42841 4.88086 1.87305 1.74784.24664 9.13729 3.06048 13.62696 5.84765 2.00796 1.24654 3.77694 2.18904 3.93164 2.34375.15471.15471.62517 2.22134.80241 2.23134.29999.0169 2.59771-6.21991 6.49251-10.83681.20819-.24678-9.08582-3.93625-11.45117-4.54687-2.39575-.61847-5.22883-.93224-7.94141-.92383zm24.52148 12.22656c-.432.0393-1.41365.97002-3.69726 3.20703-2.65262 2.59854-4.39061 3.60824-3.49219 4.04883.77963.33557 5.57854-.29979 6.32227-.78711.36409-.23856.9697-.99172 1.11914-1.38476.31015-.8168.33253-3.7897.0254-4.8418-.0496-.16985-.13334-.2553-.27735-.24219z" transform="translate(0.94681173,35.955356)" sodipodi:nodetypes="ssssssssssssscscsss"/><path id="path278" style="fill:#faa;fill-opacity:1;stroke:#000;stroke-width:.284393;stroke-opacity:1" d="m337.2793 218.45117c-1.03079.0278-3.66046 1.18492-4.00977 1.96485-1.00607 2.2463-.7601 5.0203-.12891 5.98242.68098 1.03801.32355-.26483 1.33399-2.22852.66861-1.29938 1.72094-2.82957 2.20245-3.60039.83218-1.33226 1.33337-2.02009.78583-2.10859-.0534-.009-.11487-.0116-.18359-.01zm8.56996 2.85935c-.0489.0319.57237-.38097.53441-.36057-.28074.15024-1.7964 1.48392-3.03746 2.92351-1.24105 1.43958-2.83867 3.47346-3.80715 4.36096l-2.02811 1.60166 2.08085.90615c2.09717 1.03415 7.95212 5.8313 9.84179 8.06445 1.5044 1.77785 4.79463 5.81957 7.58688 10.38527.0.0 1.92367 2.75841 2.30248 3.27543.82749 1.12941 1.53514.87711 2.38405-.38259.81469-1.20899 1.13342-3.46015.95096-7.57148-.1695-3.81923-.76456-5.87017-2.81002-9.89413-2.94144-5.78659-5.34695-9.34447-7.62376-11.11576-1.79709-1.3981-4.9141-3.14637-5.64854-2.66701z" transform="translate(0.94681173,35.955356)" sodipodi:nodetypes="csssscccscscccsssssssss"/><path style="fill:#241c1c;stroke:#000;stroke-width:.284393;stroke-opacity:1" d="m335.76178 264.46034c-.45013-.48424.80055-2.44335 2.71874-5.71987.97957-1.67325 2.21601-3.3777 2.21601-3.3777l.31866.76342.22756.49109c.15603.33672.95937 1.2737 1.42908 1.36778l.76228.28493-1.68182 1.8761c-.69459.77482-2.11946 2.02198-3.48985 3.18127-.64756.54781-1.85566 1.82686-2.30836 1.33986z" id="path282" sodipodi:nodetypes="ssscsscssss"/><path style="fill:#241c1c;stroke:#000;stroke-width:.284393;stroke-opacity:1" d="m311.8259 249.3409s.005-.75406.14698-1.27132c.26107-.94887 2.41178-4.51584 3.37011-5.97989l1.4197-2.16891.51652.89945c.55326.96342 1.09198 1.77342 1.91041 2.04623.54192.18064-1.61415 2.32117-2.54865 3.07881-3.15575 2.55853-3.75714 3.64332-4.33126 3.5089z" id="path284" sodipodi:nodetypes="csscssssc"/><path style="fill:#000;stroke:#000;stroke-width:.284393;stroke-opacity:1" d="m323.72468 261.87559c-4.11516-2.18805-8.01305-5.34308-7.83796-6.57397.2073-1.45725 4.47912-2.25261 5.88963-.90294.44574.42651 2.03461 1.59907 3.48146 3.06962 2.12639 2.16122 2.6273 2.65639 2.6273 3.33863.0.64704-.97693 1.4811-1.42926 1.63232-1.26942.42439-1.1289.28828-2.73117-.56371z" id="path286" sodipodi:nodetypes="ssssssss"/><path style="fill:#000;stroke:#000;stroke-width:.284393;stroke-opacity:1" d="m319.10943 273.87165c-.83801-.30146-1.97126-.88951-2.51834-1.30679-1.64377-1.25377-3.29197-3.04996-2.36634-4.38123.0863-.12414.94433.20409 1.76252.93075.81818.72667 2.25773 1.73551 3.12624 2.14274 1.4154.66367 2.07953.88167 5.06402 1.08968 2.31915.16164 3.58088.1492 3.65032.35752.0582.1747-.57694.63551-1.41149 1.02402-1.93959.90294-5.02694.96349-7.30693.14331zm5.64736-.26205c.53158-.15341.18831-.25848-1.3604-.4164-2.80487-.286-4.57607-.85107-6.29636-2.00874-1.45968-.98229-2.02062-.76612-.80393.30981 2.13012 1.88369 5.95222 2.83929 8.46069 2.11533z" id="path288" sodipodi:nodetypes="ssssssssssssss"/><path style="fill:#f22c2c;fill-opacity:1;stroke:#000;stroke-width:.0502741;stroke-opacity:1" d="m321.70562 273.61364c-1.15081-.15567-2.41238-.37016-3.29215-.79178-.60278-.28887-1.27486-.81229-1.78141-1.21979-.37514-.30179-1.1768-1.57623-1.13092-1.62211.0132-.0133-.0543.005.0537.0924.76957.62311 2.88183 2.22786 3.85906 2.56417 1.36724.47053 2.98614.72909 4.57887.7313.37329 52e-5 2.09973-.22052 2.13551-.19782.0414.0263-1.42773.47322-1.67648.53546-.98386.24617-2.15946-.0125-2.74613-.0919z" id="path292" sodipodi:nodetypes="sssssssssss"/><path style="fill:#483737;stroke:#000;stroke-width:.284393;stroke-opacity:1" d="m360.35948 255.8654c-.36446-.0694-1.92035-.83605-2.52354-1.43924-2.02604-2.02604-2.86481-8.22111-2.14991-12.45256.18453-1.09224 1.14355-1.0229 2.05793-1.19444 1.42561-.26745 2.45385.92801 3.30505 2.42359.87707 1.54105.72473 2.97484 1.27903 7.48912.24382 1.98576.56762 3.93741.71954 4.337.2731.7183.91254 1.20108-.52732.9836-.73111-.11043-1.79633-.0776-2.16078-.14707z" id="path294" sodipodi:nodetypes="sssssssss"/><path style="fill:#483737;stroke:#000;stroke-width:.284393;stroke-opacity:1" d="m318.62165 227.21251c-.54746-.23604-1.83539-1.33783-2.46112-2.03847l-1.30723-1.46374 4.05236-1.09273s4.3878-1.00513 5.27072-1.01367c1.90373-.0184 5.55861 1.21737 6.25276 1.9844.47099.52043.13162.54926-.0533 1.41701-.12474.58544-1.06707 1.04376-1.57452 1.28597-3.06653 1.15601-7.25274 2.12547-10.17967.92123z" id="path296" sodipodi:nodetypes="csccssscc"/><path style="fill:#deaa87;stroke:#000;stroke-width:.402193;stroke-opacity:1" d="m343.06269 297.38539c-3.72513-.55287-7.56449-2.03274-14.97197-7.17752-4.67007-3.24355-6.06528-4.97607-10.96945-9.65919-6.5729-6.27665-9.17617-7.84809-20.82506-14.0754-9.7862-5.23155-11.91884-6.80505-14.16682-10.45252-1.78554-2.89713-2.66142-5.5836-2.45779-9.19697.22197-3.93898 1.1218-5.80834 3.90685-8.88883 1.79036-1.98029 2.55476-2.87812 3.04386-2.24029.32127.41895 2.92851 1.65312 5.58245 2.11331 5.11457.88685 8.8082 2.98589 13.20336 5.73508 5.20519 3.25586 5.07818 3.10664 4.57098 5.13091.0.0-1.51348 3.21889 4.06669 2.12076.0.0 5.50948 1.24885 8.80801-1.24368 1.06663-.806.62504-6.60021-.13385-7.01185-.80743-.43798.33769-1.02542.85811-2.04551 1.07125-2.09983.99258-3.66804-.25861-5.15499-.81615-.96995-1.36191-1.23744-2.52476-1.23744-.81594.0-2.01236.55388-2.54279.84397-1.37701.75305.75551 1.66026-5.68177-1.4213-2.58121-1.23564-5.95195-2.54994-7.57682-2.89787-3.17015-.67881-9.86216-.96997-12.39245-.11735l-2.9959 1.00951 2.38052-2.13546c1.55787-1.3975 5.32863-3.29014 7.9389-3.93521 1.32723-.328 5.07187-1.35451 7.84383-1.38162l6.46589-.0632v0c.40949.66802 3.76901 5.11779 8.04271 4.49203 1.68128-.24617 3.93044-.57366 4.74287-.76746s1.29216-.22919 1.47516-.065c.18299.1642 2.38328.49159 5.03775 1.43368 5.73434 2.03516 8.06758 3.60535 13.61582 7.67941 4.42959 3.25263 6.23563 4.63269 7.29259 4.63269.53935.0.0669.3194-.15779 2.51256-.47945 4.67974 1.17283 10.25241 3.57058 12.0426.71065.53057 1.92494.87058 3.5216.98608l2.88031.1954.93158 2.04574c.5019 1.10217 1.33898 3.44576 1.80095 5.37975 1.10391 4.62134 1.34534 12.32161-2.16847 22.15415-1.57067 4.39511-2.91398 6.96902-1.11262 1.40301 2.06396-6.3774.35283-13.72934-2.40045-19.09879-3.94492-7.69339-7.31726-10.37163-11.91703-12.936-1.41347-.78801-2.06834-.27305-2.06846-.70835-13e-5-.45839.61802-4.57139-.558-5.3951-1.92002-1.34484-4.55473-.23242-6.57684 2.4657-.64399.85927-1.02689 1.50664-1.02689 1.50664-.99722.21308-4.14845.0452-5.24777 1.02744-1.02049.91181-1.21266 1.42065-1.39516 3.69422-.14786 1.84205-.0329 3.05038.38161 4.00912.32631.7548 1.09421.60513 1.34735 2.57977.15326 1.19555 2.0446 1.61711 2.93373 1.35861 2.67975-.7791 8.21231 3.95164 12.87487 8.55119 3.19856 3.15534 5.57454 6.99512 8.84766 11.84232 1.6078 2.38101 2.02382 3.44933 2.89518 2.9108.22319-.13794 1.70404-1.02822 1.70404-.81446.0.65306-3.86342 5.52158-8.95765 7.09727-3.6148 1.11809-8.10038 1.66935-11.48069 1.16765zm-16.28252-23.41426c2.42976-1.30309 1.84083-1.85785-2.01724-1.9002-3.91568-.043-6.78882-1.03925-8.6751-3.0081-1.2164-1.26966-2.58629-1.56316-2.58629-.55413.0 1.83586 2.55769 4.66426 5.03938 5.57277 2.35776.86314 6.52824.80728 8.23925-.11034zm1.48261-10.9883c.61605-.57875.92427-1.32864.92427-2.24874.0-1.16646-.44314-1.83745-2.85894-4.32887-1.57242-1.62164-3.45488-3.23123-4.18326-3.57686-3.57606-1.69696-8.39648.31289-7.67214 3.19886.35604 1.41858 2.0895 3.27567 4.73374 5.07134 4.85312 3.29569 7.06424 3.75574 9.05633 1.88427z" id="path300" sodipodi:nodetypes="ssssssssssssssssssssscsssccssssssssscsssssssssssssssssssssssssssssssssss"/><path style="fill:#fff;stroke:#000;stroke-width:.121537;stroke-linecap:round;stroke-linejoin:round;paint-order:stroke fill markers" d="m343.36378 220.74774c-.81987-.26241-1.41084-.85931-1.81026-1.82841-.39256-.95247-.49525-1.84431-.26304-2.28453.16746-.31747.54295-.63232 1.05378-.88362.53513-.26325 1.03659-.39435 1.51219-.39535.41384-86e-5.58859.0437.79806.20346.81514.62174.92886 3.008.21388 4.48822-.33396.69138-.82225.91863-1.50461.70023z" id="path276" transform="translate(0.94681173,35.955356)"/><path style="fill:#fff;stroke:#000;stroke-width:.121537;stroke-linecap:round;stroke-linejoin:round;paint-order:stroke fill markers" d="m319.36136 205.45143c-.4078-.13954-.6782-.31173-.99835-.63572-.45659-.46209-.76515-1.07226-.99646-1.97047-.24512-.95185-.17495-1.38596.29985-1.85496.32057-.31666.85339-.60895 1.43452-.78692.42048-.12878 1.24387-.14449 1.45675-.0278.32343.1773.59031.58469.73426 1.12084.0997.3714.13869 1.51565.0683 2.00642-.11648.81268-.39198 1.56813-.69965 1.91854-.29515.33617-.75252.41716-1.29926.23007z" id="path315" transform="translate(0.94681173,35.955356)"/><path style="fill:#fff;stroke:#000;stroke-width:.121537;stroke-linecap:round;stroke-linejoin:round;paint-order:stroke fill markers" d="m310.53492 214.25496c-.3339-.11905-.46177-.33919-.46226-.79579-.001-1.10394 1.07709-3.48658 3.16663-6.99742.73145-1.22898 1.31619-2.04565 2.40449-3.35823l.39111-.47171.14612.55609c.17518.66672.40751 1.24623.69175 1.72552.2768.46672.92164 1.12201 1.3545 1.37644.31882.18739.93706.43232 1.09127.43232.0446.0.0933.0198.10832.044.0244.0395-.87249 1.16257-1.90539 2.38566-.21218.25125-.94467 1.00405-1.62774 1.67287-.68306.66882-1.49353 1.47943-1.80103 1.80136-.37512.39271-.68221.66865-.93324.83856-.99107.67084-2.05828.99219-2.62453.7903zm1.41442-.77165c.12556-.0843.64869-.54133 1.16251-1.0156 1.07365-.99103 1.62343-1.47414 2.53827-2.23051 1.23241-1.01893 2.58883-2.4733 2.78552-2.98667.10977-.28653.0535-.38903-.3122-.5687-.21059-.10347-.40381-.24909-.63352-.47747-.36454-.36244-.60658-.71522-1.21884-1.77649-.22527-.39049-.42785-.70986-.45016-.70971-.0652 45e-5-1.85383 2.75188-2.74285 4.2194-1.23597 2.04021-2.07505 3.63579-2.22546 4.23186-.0482.19085-.0997.5733-.1146.84989l-.027.50288.29926.0705c.43432.10233.66357.0756.93911-.10939z" id="path354" transform="translate(0.94681173,35.955356)"/><path style="fill:#fff;stroke:#000;stroke-width:.121537;stroke-linecap:round;stroke-linejoin:round;paint-order:stroke fill markers" d="m334.55879 229.55639c-.36006-.0915-.51088-.27793-.55333-.6841-.0544-.52066.22956-1.50028.78342-2.70249.50574-1.09776.94454-1.86606 2.60396-4.55928.37509-.60877.81134-1.37055.96944-1.69284.26081-.53167.78383-1.36161 1.34793-2.13893l.21347-.29416.0289.25076c.0159.13791.0874.47095.15889.74009.37307 1.40438.96903 2.35065 1.86453 2.96049.40269.27423.7429.42022 1.37996.59218.0607.0164.006.0853-1.46957 1.86124-1.2263 1.47564-1.89539 2.2243-2.79629 3.12883-1.39846 1.40409-2.55806 2.20741-3.56625 2.47053-.32239.0841-.77527.1159-.96506.0677zm.97757-.63133c.29426-.0874.68461-.37059 1.53474-1.1135.39391-.34422 1.02873-.89637 1.4107-1.22699 1.385-1.19879 2.02613-1.82402 3.15641-3.07807.62012-.68803 1.12072-1.25662 1.11245-1.26354-.008-.007-.23967-.0944-.51422-.19437-.71454-.26025-.76336-.28934-1.17199-.69824-.48686-.48719-.56024-.60291-.94211-1.48557-.17848-.41256-.32952-.75526-.33563-.76154-.031-.0319-1.3596 1.92065-1.94225 2.85453-.44074.70643-2.15249 3.64079-2.51943 4.31892-.56399 1.04228-.81749 1.73787-.75492 2.07139.0507.26999.43776.63373.6809.6398.0374 93e-5.16585-.0273.28535-.0628z" id="path393" transform="translate(0.94681173,35.955356)"/><path style="fill:#fff;stroke:#000;stroke-width:.156612;stroke-linecap:round;stroke-linejoin:round;paint-order:stroke fill markers" d="m323.85035 226.86461c-.75946-.20497-2.5881-1.24674-4.88357-2.78215-2.2218-1.48615-3.60057-2.77882-4.12591-3.86827-.33938-.70381-.31162-1.13098.10273-1.58049.65099-.70624 2.49709-1.25534 3.95786-1.17722 1.1425.0611 2.00772.46922 3.18818 1.50385.66373.58174 4.24445 4.19563 4.56124 4.60349.42163.54285.49675.72394.49885 1.20256.002.53626-.14291.84993-.61197 1.3215-.36013.36207-.86169.65455-1.34385.78367-.35357.0947-.97899.0914-1.34356-.007zm1.52898-.16455c.45794-.15628.81677-.3973 1.19751-.80435.64225-.68662.68773-1.25535.1604-2.00583-.34136-.48582-2.30192-2.53955-3.2037-3.35595-1.11714-1.01138-2.83055-2.42238-3.11229-2.563-.57867-.28881-.85906-.33623-1.96725-.33269-.93758.003-1.08625.0172-1.5831.15136-1.409.38041-2.19525 1.0573-2.08467 1.7947.17248 1.15019 2.96004 3.59402 6.46441 5.66729.92202.54549 2.61186 1.45831 2.89609 1.56442.27398.10228.71458.0608 1.2326-.11595z" id="path432" transform="translate(0.94681173,35.955356)"/></g><g id="g15825" style="display:inline;fill:#003380" inkscape:groupmode="layer"/></g></svg>